<svg 

    width="var(--icon-width, 24)"
    height="var(--icon-height, 24px)"

 viewBox="0 0 35 30"
 fill="none"
 xmlns="http://www.w3.org/2000/svg"
>
<path d="M17.25 9.89966V27.7497M17.25 27.7497L16.2323 26.2235C15.328 24.867 14.8745 24.1867 14.2747 23.6937C13.7415 23.2555 13.1253 22.9271 12.465 22.7265C11.719 22.5 10.8974 22.5 9.25377 22.5H4.29644C3.31827 22.5 2.8293 22.5 2.45532 22.3094C2.12604 22.1417 1.85852 21.8733 1.69074 21.544C1.5 21.1696 1.5 20.6803 1.5 19.7002V4.30017C1.5 3.32008 1.5 2.82967 1.69074 2.45532C1.85852 2.12604 2.12604 1.85852 2.45532 1.69074C2.82967 1.5 3.31922 1.5 4.29932 1.5H8.84932C11.7896 1.5 13.2601 1.5 14.3831 2.07222C15.371 2.57555 16.1742 3.37897 16.6775 4.36682C17.2497 5.48986 17.25 6.95938 17.25 9.89966C17.25 6.95938 17.25 5.48986 17.8222 4.36682C18.3256 3.37897 19.1281 2.57555 20.116 2.07222C21.239 1.5 22.7094 1.5 25.6497 1.5H30.1997C31.1797 1.5 31.6701 1.5 32.0445 1.69074C32.3738 1.85852 32.6408 2.12604 32.8086 2.45532C32.9993 2.82967 33 3.32008 33 4.30017V19.7002C33 20.6803 32.9993 21.1696 32.8086 21.544C32.6408 21.8733 32.3743 22.1417 32.0451 22.3094C31.6711 22.5 31.1817 22.5 30.2036 22.5H25.2463C23.6027 22.5 22.7794 22.5 22.0334 22.7265C21.373 22.9271 20.7599 23.2555 20.2267 23.6937C19.6244 24.1887 19.168 24.8725 18.2563 26.2401L17.25 27.7497Z"

    stroke="var(--icon-stroke, black)"
    fill="var(--icon-fill, none)"
    stroke-width="var(--icon-stroke-width, 3)"

 stroke-linecap="round"
 stroke-linejoin="round"
/>
</svg>
