<svg width="var(--icon-width, 112)" height="var(--icon-height, 36)" viewBox="0 0 112 36" fill="none" xmlns="http://www.w3.org/2000/svg">
    <path
        d="M12.9563 29.9999C15.9603 29.9999 18.3956 27.5823 18.3956 24.5999C18.3956 21.6176 15.9603 19.2 12.9563 19.2C9.9522 19.2 7.51693 21.6176 7.51693 24.5999C7.51693 27.5823 9.9522 29.9999 12.9563 29.9999Z"
        fill="black" />
    <path
        d="M25.0437 29.9999C28.0478 29.9999 30.483 27.5823 30.483 24.5999C30.483 21.6176 28.0478 19.2 25.0437 19.2C22.0396 19.2 19.6044 21.6176 19.6044 24.5999C19.6044 27.5823 22.0396 29.9999 25.0437 29.9999Z"
        fill="black" />
    <path
        d="M17.2906 19.9029C17.7439 19.4528 18.3588 19.2 19 19.2C19.6412 19.2 20.2561 19.4528 20.7094 19.9029L19 21.6L17.2906 19.9029Z"
        fill="black" />
    <path
        d="M36.0018 7.95362C36.2642 8.69724 36.3765 9.48488 36.3323 10.2716C36.2881 11.0583 36.0882 11.8287 35.7441 12.5387C35.4 13.2487 34.9184 13.8845 34.3268 14.4097C33.7352 14.935 33.0452 15.3394 32.2962 15.5999L30.298 9.93738L36.0018 7.95362Z"
        fill="black" />
    <path
        d="M1.99822 7.95362C1.46826 9.45542 1.56094 11.1047 2.25588 12.5387C2.95081 13.9727 4.19108 15.0738 5.70383 15.5999L7.70204 9.93738L1.99822 7.95362Z"
        fill="black" />
    <path
        d="M6.91256 18C6.91256 15.8936 7.47108 13.8242 8.53198 12C9.59287 10.1758 11.1188 8.66092 12.9563 7.6077C14.7938 6.55448 16.8782 6.00001 19 6.00001C21.1218 6.00001 23.2062 6.55448 25.0437 7.6077C26.8812 8.66092 28.4071 10.1758 29.468 12C30.5289 13.8242 31.0874 15.8936 31.0874 18"
        fill="black" />
    <path
        d="M54.0156 17H47.2344V5.57812H54.0156V8.05469H50.3203V9.85156H53.7422V12.3281H50.3203V14.4844H54.0156V17ZM66.3047 17H62.7344L60.5078 13.4297L58.3047 17H54.8125L58.6016 11.1562L55.0391 5.57812H58.4609L60.5234 9.10938L62.5078 5.57812H66.0312L62.4141 11.3984L66.3047 17ZM74.6016 17L74.0391 14.8594H70.3281L69.75 17H66.3594L70.0859 5.53125H74.2031L77.9766 17H74.6016ZM73.3984 12.3281L72.9062 10.4531C72.8542 10.25 72.7786 9.96094 72.6797 9.58594C72.5807 9.20573 72.4818 8.8151 72.3828 8.41406C72.2891 8.00781 72.2161 7.67448 72.1641 7.41406C72.1172 7.67448 72.0495 7.9974 71.9609 8.38281C71.8776 8.76302 71.7891 9.14062 71.6953 9.51562C71.6068 9.89062 71.5286 10.2031 71.4609 10.4531L70.9688 12.3281H73.3984ZM84.1953 17L81.8594 8.77344H81.7891C81.8099 8.98698 81.8307 9.27604 81.8516 9.64062C81.8776 10.0052 81.901 10.3984 81.9219 10.8203C81.9427 11.2422 81.9531 11.6484 81.9531 12.0391V17H79.2188V5.57812H83.3281L85.7109 13.6875H85.7734L88.1094 5.57812H92.2266V17H89.3906V11.9922C89.3906 11.6328 89.3958 11.2474 89.4062 10.8359C89.4219 10.4193 89.4375 10.0286 89.4531 9.66406C89.474 9.29427 89.4922 9.0026 89.5078 8.78906H89.4375L87.1328 17H84.1953ZM57.0234 31H53.9219V26.3438H50.3359V31H47.2344V19.5781H50.3359V23.8125H53.9219V19.5781H57.0234V31ZM66.5078 31L65.9453 28.8594H62.2344L61.6562 31H58.2656L61.9922 19.5312H66.1094L69.8828 31H66.5078ZM65.3047 26.3281L64.8125 24.4531C64.7604 24.25 64.6849 23.9609 64.5859 23.5859C64.487 23.2057 64.388 22.8151 64.2891 22.4141C64.1953 22.0078 64.1224 21.6745 64.0703 21.4141C64.0234 21.6745 63.9557 21.9974 63.8672 22.3828C63.7839 22.763 63.6953 23.1406 63.6016 23.5156C63.513 23.8906 63.4349 24.2031 63.3672 24.4531L62.875 26.3281H65.3047ZM76.2109 21.9453C75.8464 21.9453 75.5208 22.0234 75.2344 22.1797C74.9479 22.3307 74.7031 22.5521 74.5 22.8438C74.2969 23.1354 74.1406 23.4922 74.0312 23.9141C73.9271 24.3307 73.875 24.8047 73.875 25.3359C73.875 26.0547 73.9661 26.6589 74.1484 27.1484C74.3307 27.638 74.6068 28.0078 74.9766 28.2578C75.3516 28.5078 75.8203 28.6328 76.3828 28.6328C76.8932 28.6328 77.3828 28.5625 77.8516 28.4219C78.3255 28.2812 78.8021 28.112 79.2812 27.9141V30.5234C78.776 30.7474 78.2578 30.9089 77.7266 31.0078C77.2005 31.1068 76.6406 31.1562 76.0469 31.1562C74.8073 31.1562 73.7917 30.9115 73 30.4219C72.2135 29.9271 71.6328 29.2422 71.2578 28.3672C70.888 27.4922 70.7031 26.4766 70.7031 25.3203C70.7031 24.4557 70.8229 23.6641 71.0625 22.9453C71.3073 22.2266 71.6641 21.6042 72.1328 21.0781C72.6016 20.5469 73.1797 20.138 73.8672 19.8516C74.5599 19.5599 75.3516 19.4141 76.2422 19.4141C76.7943 19.4141 77.375 19.4792 77.9844 19.6094C78.599 19.7344 79.1979 19.9375 79.7812 20.2188L78.8359 22.6484C78.4193 22.4505 77.9974 22.2839 77.5703 22.1484C77.1432 22.013 76.6901 21.9453 76.2109 21.9453ZM91.2734 31H87.7891L85.5312 26.6328L84.6172 27.1797V31H81.5156V19.5781H84.6172V24.5391C84.7474 24.2891 84.8958 24.0391 85.0625 23.7891C85.2344 23.5391 85.401 23.3021 85.5625 23.0781L87.9609 19.5781H91.3359L87.7344 24.6953L91.2734 31ZM99.2969 31H92.5156V19.5781H99.2969V22.0547H95.6016V23.8516H99.0234V26.3281H95.6016V28.4844H99.2969V31ZM105.039 19.5781C106.076 19.5781 106.938 19.7057 107.625 19.9609C108.312 20.2109 108.828 20.5859 109.172 21.0859C109.521 21.5859 109.695 22.2083 109.695 22.9531C109.695 23.4167 109.617 23.8385 109.461 24.2188C109.305 24.599 109.081 24.9401 108.789 25.2422C108.503 25.5391 108.159 25.7995 107.758 26.0234L111.086 31H107.586L105.164 26.8438H104.383V31H101.297V19.5781H105.039ZM104.992 21.9141H104.383V24.5234H104.961C105.435 24.5234 105.823 24.4193 106.125 24.2109C106.427 24.0026 106.578 23.6302 106.578 23.0938C106.578 22.724 106.453 22.4349 106.203 22.2266C105.953 22.0182 105.549 21.9141 104.992 21.9141Z"
        fill="black" />
</svg>