<svg 
    width="var(--icon-width, 21)"
    height="var(--icon-height, 21)" 

viewBox="0 0 21 21" fill="none" xmlns="http://www.w3.org/2000/svg"
>
<path d="M10.75 5.23257L0.75 15.2326V20.2326L5.75 20.2325L15.75 10.2326M10.75 5.23257L14.3358 1.64675L14.3379 1.64462C14.8315 1.15102 15.0788 0.903782 15.3638 0.811179C15.6148 0.729607 15.8853 0.729607 16.1364 0.811179C16.4212 0.903716 16.6681 1.15067 17.161 1.64358L19.3358 3.81832C19.8308 4.31334 20.0784 4.56097 20.1711 4.84638C20.2527 5.09743 20.2527 5.36786 20.1711 5.61892C20.0784 5.90413 19.8312 6.15138 19.3369 6.64569L19.3358 6.64675L15.75 10.2326M10.75 5.23257L15.75 10.2326"

    style="translate: 0.2s"
    fill="var(--icon-fill, rgba(0,0,0,0))"
    stroke="var(--icon-stroke, black)"
    stroke-width="var(--icon-stroke-width, 1.5)"

stroke-linecap="round" stroke-linejoin="round"
/>
</svg>

