<svg 

    width="var(--icon-width, 24)"
    height="var(--icon-height, 24px)"

viewBox="0 0 34 37"
fill="none"
xmlns="http://www.w3.org/2000/svg"
>
<path d="M19.4565 34.3414L29.012 28.8245C30.032 28.2356 30.541 27.9411 30.912 27.5291C31.2402 27.1646 31.4883 26.7353 31.6399 26.2688C31.8108 25.7428 31.8108 25.1551 31.8108 23.9827V12.9329C31.8108 11.7606 31.8108 11.1729 31.6399 10.6469C31.4883 10.1804 31.2402 9.75075 30.912 9.38625C30.5426 8.97607 30.0348 8.68284 29.0235 8.099L19.4548 2.57453C18.4348 1.9856 17.9258 1.69174 17.3835 1.57648C16.9038 1.47451 16.4078 1.47451 15.928 1.57648C15.3858 1.69174 14.8751 1.9856 13.855 2.57453L4.29777 8.0924C3.27891 8.68064 2.76988 8.97453 2.39917 9.38625C2.07097 9.75075 1.82311 10.1804 1.67155 10.6469C1.50024 11.1741 1.50024 11.7634 1.50024 12.9412V23.9749C1.50024 25.1528 1.50024 25.7416 1.67155 26.2688C1.82311 26.7353 2.07097 27.1646 2.39917 27.5291C2.7701 27.9411 3.27951 28.2356 4.29956 28.8245L13.855 34.3414C14.875 34.9303 15.3858 35.2243 15.928 35.3395C16.4078 35.4415 16.9038 35.4415 17.3835 35.3395C17.9258 35.2243 18.4365 34.9303 19.4565 34.3414Z" 

    stroke="var(--icon-stroke, black)"
    fill="var(--icon-fill, none)"
    stroke-width="var(--icon-stroke-width, 3)"

stroke-linecap="round" stroke-linejoin="round"
/>
<path d="M11.4055 18.4578C11.4055 21.3573 13.756 23.7078 16.6555 23.7078C19.555 23.7078 21.9055 21.3573 21.9055 18.4578C21.9055 15.5583 19.555 13.2078 16.6555 13.2078C13.756 13.2078 11.4055 15.5583 11.4055 18.4578Z"

    stroke="var(--icon-stroke, black)"
    fill="var(--icon-fill, none)"
    stroke-width="var(--icon-stroke-width, 3)"

stroke-linecap="round" stroke-linejoin="round"/>
</svg>
