
<svg width="50" height="50" viewBox="0 0 50 50" fill="none" xmlns="http://www.w3.org/2000/svg">
<path d="M16.7986 32.5561V17.445C16.7986 16.199 16.7986 15.5752 17.0608 15.2066C17.2897 14.8848 17.6424 14.6735 18.034 14.623C18.4826 14.5652 19.0327 14.8586 20.1314 15.4445L34.298 23.0001L34.3032 23.0024C35.5174 23.6499 36.1247 23.9738 36.3239 24.4056C36.4977 24.7822 36.4977 25.217 36.3239 25.5936C36.1244 26.026 35.5156 26.3512 34.298 27.0006L20.1314 34.5562C19.0319 35.1425 18.4827 35.4348 18.034 35.3769C17.6424 35.3264 17.2897 35.1152 17.0608 34.7934C16.7986 34.4247 16.7986 33.8022 16.7986 32.5561Z" stroke="#676767" stroke-width="1.5" stroke-linecap="round" stroke-linejoin="round"/>
</svg>
